<?xml version="1.0" standalone="no"?>
<!DOCTYPE svg PUBLIC "-//W3C//DTD SVG 20010904//EN"
 "http://www.w3.org/TR/2001/REC-SVG-20010904/DTD/svg10.dtd">
<svg version="1.0" xmlns="http://www.w3.org/2000/svg"
 width="1100.000000pt" height="400.000000pt" viewBox="0 0 1100.000000 400.000000"
 preserveAspectRatio="xMidYMid meet">

<g transform="translate(0.000000,400.000000) scale(0.100000,-0.100000)"
fill="#000000" stroke="none">
<path d="M1600 2717 c-8 -17 -31 -42 -50 -55 -33 -22 -42 -24 -135 -19 -72 4
-117 12 -160 29 -55 21 -75 23 -225 23 -178 -1 -233 -11 -334 -62 -62 -32
-150 -120 -195 -196 -51 -87 -99 -238 -113 -355 -15 -134 0 -269 46 -404 74
-217 186 -338 366 -393 71 -21 313 -32 395 -16 190 35 361 199 420 403 9 32
15 72 13 90 -3 29 -5 27 -16 -25 -32 -141 -131 -270 -249 -325 -79 -36 -206
-38 -269 -5 -97 52 -144 113 -176 231 -20 71 -22 103 -22 392 0 286 2 324 21
413 28 125 55 181 104 214 36 24 45 25 110 19 87 -8 146 -37 220 -107 128
-124 223 -288 251 -433 7 -36 16 -66 20 -66 5 0 8 153 8 340 0 187 -3 340 -7
340 -5 0 -15 -15 -23 -33z"/>
<path d="M9193 2710 c-55 -11 -323 -30 -424 -30 -51 0 -78 -4 -74 -10 3 -5 40
-10 81 -10 l74 0 0 -680 0 -680 -74 0 c-41 0 -78 -4 -81 -10 -4 -7 115 -10
349 -10 231 0 356 4 356 10 0 6 -32 10 -75 10 l-75 0 0 710 c0 391 -3 710 -7
709 -5 -1 -27 -5 -50 -9z"/>
<path d="M10415 2710 c-66 -13 -277 -30 -374 -30 -54 0 -91 -4 -91 -10 0 -6
32 -10 75 -10 l75 0 0 -228 0 -229 -52 53 c-67 66 -136 89 -243 81 -183 -14
-333 -129 -397 -305 -29 -80 -37 -307 -14 -406 55 -232 255 -379 497 -363 89
6 124 22 173 79 l36 42 0 -52 0 -52 260 0 c167 0 260 4 260 10 0 6 -32 10 -75
10 l-75 0 0 710 c0 391 -3 710 -7 709 -5 -1 -26 -5 -48 -9z m-404 -444 c23
-16 45 -44 60 -78 24 -53 24 -56 24 -388 0 -367 -3 -395 -56 -455 -43 -49 -84
-48 -140 2 -88 80 -100 134 -100 467 1 334 16 403 105 457 41 25 64 24 107 -5z"/>
<path d="M4630 2686 c0 -46 -68 -162 -135 -229 -86 -87 -179 -133 -290 -146
l-80 -8 77 -2 77 -1 4 -412 c2 -287 7 -424 16 -450 26 -79 90 -127 196 -147
75 -14 365 -15 365 -1 0 6 -9 10 -20 10 -64 0 -140 65 -167 144 -16 46 -18 94
-18 451 l0 400 90 6 90 5 -92 2 -93 2 0 200 c0 127 -4 200 -10 200 -5 0 -10
-11 -10 -24z"/>
<path d="M7272 2690 c-140 -30 -227 -137 -239 -296 l-6 -74 -73 0 c-40 0 -76
-4 -79 -10 -4 -6 23 -10 74 -10 l81 0 0 -500 0 -500 -74 0 c-41 0 -78 -4 -81
-10 -4 -7 108 -10 329 -10 217 0 336 4 336 10 0 6 -32 10 -75 10 l-75 0 0 500
0 500 90 0 c53 0 90 4 90 10 0 6 -17 10 -38 10 -56 0 -133 26 -188 63 -65 43
-104 117 -104 196 0 78 18 101 76 101 53 0 63 -15 40 -59 -20 -38 -20 -103 -1
-141 9 -18 36 -39 72 -57 51 -25 71 -28 172 -32 l113 -3 -7 53 c-22 165 -121
249 -300 255 -49 2 -109 -1 -133 -6z"/>
<path d="M3613 2362 c-59 -21 -131 -73 -162 -117 l-21 -30 0 69 0 69 -48 -7
c-125 -16 -259 -26 -379 -26 -82 0 -133 -4 -133 -10 0 -6 32 -10 75 -10 l75 0
0 -500 0 -500 -75 0 c-43 0 -75 -4 -75 -10 0 -6 125 -10 355 -10 230 0 355 4
355 10 0 6 -32 10 -75 10 l-75 0 0 391 c0 414 6 485 50 556 47 79 125 82 164
8 20 -38 21 -59 26 -410 5 -358 6 -371 27 -411 29 -53 93 -108 152 -130 56
-21 358 -34 347 -15 -4 6 -16 11 -26 11 -28 0 -67 54 -79 110 -7 31 -11 184
-11 394 0 397 -4 420 -74 490 -55 56 -116 76 -241 82 -81 4 -110 1 -152 -14z"/>
<path d="M6380 2350 c-59 -14 -259 -30 -377 -30 -69 0 -113 -4 -113 -10 0 -6
32 -10 75 -10 l75 0 0 -500 0 -500 -75 0 c-43 0 -75 -4 -75 -10 0 -6 122 -10
345 -10 223 0 345 4 345 10 0 6 -32 10 -75 10 l-75 0 1 308 c1 413 9 531 40
576 22 32 56 56 80 56 5 0 14 -11 19 -25 8 -20 4 -39 -15 -85 -32 -77 -35
-179 -5 -228 34 -56 102 -67 178 -31 88 43 135 154 112 265 -20 95 -101 154
-210 154 -64 0 -139 -48 -181 -115 l-19 -30 0 108 c0 59 -3 107 -7 106 -5 -1
-24 -5 -43 -9z"/>
<path d="M2218 2330 c-231 -39 -392 -173 -443 -365 -19 -75 -20 -252 0 -324
44 -166 154 -279 341 -351 71 -27 254 -39 347 -21 145 27 250 109 311 244 41
90 50 117 38 117 -5 0 -26 -33 -45 -74 -43 -90 -103 -159 -172 -194 -43 -23
-63 -26 -140 -27 -81 0 -95 3 -137 28 -96 56 -137 147 -145 323 l-6 112 249 4
c276 6 327 15 389 69 18 16 39 46 46 66 15 46 5 130 -22 188 -29 62 -116 139
-187 165 -115 44 -298 61 -424 40z m166 -31 c56 -44 86 -146 86 -296 0 -93
-16 -145 -51 -164 -13 -6 -74 -14 -136 -17 l-113 -5 0 124 c0 194 25 306 81
357 31 29 97 30 133 1z"/>
<path d="M5248 2330 c-231 -39 -392 -173 -443 -365 -19 -75 -20 -252 0 -324
44 -166 154 -279 341 -351 71 -27 254 -39 347 -21 145 27 250 109 311 244 41
90 50 117 38 117 -5 0 -26 -33 -45 -74 -43 -90 -103 -159 -172 -194 -43 -23
-63 -26 -140 -27 -81 0 -95 3 -137 28 -96 56 -137 147 -145 323 l-6 112 249 4
c276 6 327 15 389 69 18 16 39 46 46 66 15 46 5 130 -22 188 -29 62 -116 139
-187 165 -115 44 -298 61 -424 40z m166 -31 c56 -44 86 -146 86 -296 0 -93
-16 -145 -51 -164 -13 -6 -74 -14 -136 -17 l-113 -5 0 124 c0 194 25 306 81
357 31 29 97 30 133 1z"/>
<path d="M7946 2329 c-22 -5 -79 -30 -128 -56 -188 -99 -277 -250 -278 -469 0
-111 14 -176 56 -261 44 -92 109 -156 211 -210 109 -58 173 -73 318 -73 146 0
213 15 314 73 182 103 261 244 261 467 0 166 -41 278 -135 374 -62 62 -178
130 -260 151 -66 17 -292 19 -359 4z m261 -53 c68 -70 82 -155 82 -481 1 -314
-16 -414 -79 -477 -58 -58 -122 -49 -188 26 -55 62 -67 147 -67 461 0 280 8
352 45 425 33 64 92 104 140 94 14 -2 44 -24 67 -48z"/>
</g>
</svg>
