<?xml version="1.0" encoding="UTF-8"?>
<svg width="1379px" height="248px" viewBox="0 0 1379 248" version="1.1" xmlns="http://www.w3.org/2000/svg" xmlns:xlink="http://www.w3.org/1999/xlink">
    <!-- Generator: Sketch 43.1 (39012) - http://www.bohemiancoding.com/sketch -->
    <title>Artboard</title>
    <desc>Created with Sketch.</desc>
    <defs></defs>
    <g id="Page-1" stroke="none" stroke-width="1" fill="none" fill-rule="evenodd">
        <g id="Artboard" fill="#000000">
            <g id="centerfold" transform="translate(180.000000, 16.000000)" fill-rule="nonzero">
                <g id="Group" transform="translate(512.100000, 74.500000) scale(-1, 1) rotate(-180.000000) translate(-512.100000, -74.500000) translate(0.200000, 0.000000)">
                    <path d="M121.8,145.7 C121,144 118.7,141.5 116.8,140.2 C113.5,138 112.6,137.8 103.3,138.3 C96.1,138.7 91.6,139.5 87.3,141.2 C81.8,143.3 79.8,143.5 64.8,143.5 C47,143.4 41.5,142.4 31.4,137.3 C25.2,134.1 16.4,125.3 11.9,117.7 C6.8,109 2,93.9 0.6,82.2 C-0.9,68.8 0.6,55.3 5.2,41.8 C12.6,20.1 23.8,8 41.8,2.5 C48.9,0.4 73.1,-0.7 81.3,0.9 C100.3,4.4 117.4,20.8 123.3,41.2 C124.2,44.4 124.8,48.4 124.6,50.2 C124.3,53.1 124.1,52.9 123,47.7 C119.8,33.6 109.9,20.7 98.1,15.2 C90.2,11.6 77.5,11.4 71.2,14.7 C61.5,19.9 56.8,26 53.6,37.8 C51.6,44.9 51.4,48.1 51.4,77 C51.4,105.6 51.6,109.4 53.5,118.3 C56.3,130.8 59,136.4 63.9,139.7 C67.5,142.1 68.4,142.2 74.9,141.6 C83.6,140.8 89.5,137.9 96.9,130.9 C109.7,118.5 119.2,102.1 122,87.6 C122.7,84 123.6,81 124,81 C124.5,81 124.8,96.3 124.8,115 C124.8,133.7 124.5,149 124.1,149 C123.6,149 122.6,147.5 121.8,145.7 Z" id="Shape"></path>
                    <path d="M881.1,145 C875.6,143.9 848.8,142 838.7,142 C833.6,142 830.9,141.6 831.3,141 C831.6,140.5 835.3,140 839.4,140 L846.8,140 L846.8,72 L846.8,4 L839.4,4 C835.3,4 831.6,3.6 831.3,3 C830.9,2.3 842.8,2 866.2,2 C889.3,2 901.8,2.4 901.8,3 C901.8,3.6 898.6,4 894.3,4 L886.8,4 L886.8,75 C886.8,114.1 886.5,146 886.1,145.9 C885.6,145.8 883.4,145.4 881.1,145 Z" id="Shape"></path>
                    <path d="M1003.3,145 C996.7,143.7 975.6,142 965.9,142 C960.5,142 956.8,141.6 956.8,141 C956.8,140.4 960,140 964.3,140 L971.8,140 L971.8,117.2 L971.8,94.3 L966.6,99.6 C959.9,106.2 953,108.5 942.3,107.7 C924,106.3 909,94.8 902.6,77.2 C899.7,69.2 898.9,46.5 901.2,36.6 C906.7,13.4 926.7,-1.3 950.9,0.3 C959.8,0.9 963.3,2.5 968.2,8.2 L971.8,12.4 L971.8,7.2 L971.8,2 L997.8,2 C1014.5,2 1023.8,2.4 1023.8,3 C1023.8,3.6 1020.6,4 1016.3,4 L1008.8,4 L1008.8,75 C1008.8,114.1 1008.5,146 1008.1,145.9 C1007.6,145.8 1005.5,145.4 1003.3,145 Z M962.9,100.6 C965.2,99 967.4,96.2 968.9,92.8 C971.3,87.5 971.3,87.2 971.3,54 C971.3,17.3 971,14.5 965.7,8.5 C961.4,3.6 957.3,3.7 951.7,8.7 C942.9,16.7 941.7,22.1 941.7,55.4 C941.8,88.8 943.3,95.7 952.2,101.1 C956.3,103.6 958.6,103.5 962.9,100.6 Z" id="Shape"></path>
                    <path d="M424.8,142.6 C424.8,138 418,126.4 411.3,119.7 C402.7,111 393.4,106.4 382.3,105.1 L374.3,104.3 L382,104.1 L389.7,104 L390.1,62.8 C390.3,34.1 390.8,20.4 391.7,17.8 C394.3,9.9 400.7,5.1 411.3,3.1 C418.8,1.7 447.8,1.6 447.8,3 C447.8,3.6 446.9,4 445.8,4 C439.4,4 431.8,10.5 429.1,18.4 C427.5,23 427.3,27.8 427.3,63.5 L427.3,103.5 L436.3,104.1 L445.3,104.6 L436.1,104.8 L426.8,105 L426.8,125 C426.8,137.7 426.4,145 425.8,145 C425.3,145 424.8,143.9 424.8,142.6 Z" id="Shape"></path>
                    <path d="M689,143 C675,140 666.3,129.3 665.1,113.4 L664.5,106 L657.2,106 C653.2,106 649.6,105.6 649.3,105 C648.9,104.4 651.6,104 656.7,104 L664.8,104 L664.8,54 L664.8,4 L657.4,4 C653.3,4 649.6,3.6 649.3,3 C648.9,2.3 660.1,2 682.2,2 C703.9,2 715.8,2.4 715.8,3 C715.8,3.6 712.6,4 708.3,4 L700.8,4 L700.8,54 L700.8,104 L709.8,104 C715.1,104 718.8,104.4 718.8,105 C718.8,105.6 717.1,106 715,106 C709.4,106 701.7,108.6 696.2,112.3 C689.7,116.6 685.8,124 685.8,131.9 C685.8,139.7 687.6,142 693.4,142 C698.7,142 699.7,140.5 697.4,136.1 C695.4,132.3 695.4,125.8 697.3,122 C698.2,120.2 700.9,118.1 704.5,116.3 C709.6,113.8 711.6,113.5 721.7,113.1 L733,112.8 L732.3,118.1 C730.1,134.6 720.2,143 702.3,143.6 C697.4,143.8 691.4,143.5 689,143 Z" id="Shape"></path>
                    <path d="M323.1,110.2 C317.2,108.1 310,102.9 306.9,98.5 L304.8,95.5 L304.8,102.4 L304.8,109.3 L300,108.6 C287.5,107 274.1,106 262.1,106 C253.9,106 248.8,105.6 248.8,105 C248.8,104.4 252,104 256.3,104 L263.8,104 L263.8,54 L263.8,4 L256.3,4 C252,4 248.8,3.6 248.8,3 C248.8,2.4 261.3,2 284.3,2 C307.3,2 319.8,2.4 319.8,3 C319.8,3.6 316.6,4 312.3,4 L304.8,4 L304.8,43.1 C304.8,84.5 305.4,91.6 309.8,98.7 C314.5,106.6 322.3,106.9 326.2,99.5 C328.2,95.7 328.3,93.6 328.8,58.5 C329.3,22.7 329.4,21.4 331.5,17.4 C334.4,12.1 340.8,6.6 346.7,4.4 C352.3,2.3 382.5,1 381.4,2.9 C381,3.5 379.8,4 378.8,4 C376,4 372.1,9.4 370.9,15 C370.2,18.1 369.8,33.4 369.8,54.4 C369.8,94.1 369.4,96.4 362.4,103.4 C356.9,109 350.8,111 338.3,111.6 C330.2,112 327.3,111.7 323.1,110.2 Z" id="Shape"></path>
                    <path d="M599.8,109 C593.9,107.6 573.9,106 562.1,106 C555.2,106 550.8,105.6 550.8,105 C550.8,104.4 554,104 558.3,104 L565.8,104 L565.8,54 L565.8,4 L558.3,4 C554,4 550.8,3.6 550.8,3 C550.8,2.4 563,2 585.3,2 C607.6,2 619.8,2.4 619.8,3 C619.8,3.6 616.6,4 612.3,4 L604.8,4 L604.9,34.8 C605,76.1 605.8,87.9 608.9,92.4 C611.1,95.6 614.5,98 616.9,98 C617.4,98 618.3,96.9 618.8,95.5 C619.6,93.5 619.2,91.6 617.3,87 C614.1,79.3 613.8,69.1 616.8,64.2 C620.2,58.6 627,57.5 634.6,61.1 C643.4,65.4 648.1,76.5 645.8,87.6 C643.8,97.1 635.7,103 624.8,103 C618.4,103 610.9,98.2 606.7,91.5 L604.8,88.5 L604.8,99.3 C604.8,105.2 604.5,110 604.1,109.9 C603.6,109.8 601.7,109.4 599.8,109 Z" id="Shape"></path>
                    <path d="M183.6,107 C160.5,103.1 144.4,89.7 139.3,70.5 C137.4,63 137.3,45.3 139.3,38.1 C143.7,21.5 154.7,10.2 173.4,3 C180.5,0.3 198.8,-0.9 208.1,0.9 C222.6,3.6 233.1,11.8 239.2,25.3 C243.3,34.3 244.2,37 243,37 C242.5,37 240.4,33.7 238.5,29.6 C234.2,20.6 228.2,13.7 221.3,10.2 C217,7.9 215,7.6 207.3,7.5 C199.2,7.5 197.8,7.8 193.6,10.3 C184,15.9 179.9,25 179.1,42.6 L178.5,53.8 L203.4,54.2 C231,54.8 236.1,55.7 242.3,61.1 C244.1,62.7 246.2,65.7 246.9,67.7 C248.4,72.3 247.4,80.7 244.7,86.5 C241.8,92.7 233.1,100.4 226,103 C214.5,107.4 196.2,109.1 183.6,107 Z M200.2,103.9 C205.8,99.5 208.8,89.3 208.8,74.3 C208.8,65 207.2,59.8 203.7,57.9 C202.4,57.3 196.3,56.5 190.1,56.2 L178.8,55.7 L178.8,68.1 C178.8,87.5 181.3,98.7 186.9,103.8 C190,106.7 196.6,106.8 200.2,103.9 Z" id="Shape"></path>
                    <path d="M486.6,107 C463.5,103.1 447.4,89.7 442.3,70.5 C440.4,63 440.3,45.3 442.3,38.1 C446.7,21.5 457.7,10.2 476.4,3 C483.5,0.3 501.8,-0.9 511.1,0.9 C525.6,3.6 536.1,11.8 542.2,25.3 C546.3,34.3 547.2,37 546,37 C545.5,37 543.4,33.7 541.5,29.6 C537.2,20.6 531.2,13.7 524.3,10.2 C520,7.9 518,7.6 510.3,7.5 C502.2,7.5 500.8,7.8 496.6,10.3 C487,15.9 482.9,25 482.1,42.6 L481.5,53.8 L506.4,54.2 C534,54.8 539.1,55.7 545.3,61.1 C547.1,62.7 549.2,65.7 549.9,67.7 C551.4,72.3 550.4,80.7 547.7,86.5 C544.8,92.7 536.1,100.4 529,103 C517.5,107.4 499.2,109.1 486.6,107 Z M503.2,103.9 C508.8,99.5 511.8,89.3 511.8,74.3 C511.8,65 510.2,59.8 506.7,57.9 C505.4,57.3 499.3,56.5 493.1,56.2 L481.8,55.7 L481.8,68.1 C481.8,87.5 484.3,98.7 489.9,103.8 C493,106.7 499.6,106.8 503.2,103.9 Z" id="Shape"></path>
                    <path d="M756.4,106.9 C754.2,106.4 748.5,103.9 743.6,101.3 C724.8,91.4 715.9,76.3 715.8,54.4 C715.8,43.3 717.2,36.8 721.4,28.3 C725.8,19.1 732.3,12.7 742.5,7.3 C753.4,1.5 759.8,0 774.3,0 C788.9,0 795.6,1.5 805.7,7.3 C823.9,17.6 831.8,31.7 831.8,54 C831.8,70.6 827.7,81.8 818.3,91.4 C812.1,97.6 800.5,104.4 792.3,106.5 C785.7,108.2 763.1,108.4 756.4,106.9 Z M782.5,101.6 C789.3,94.6 790.7,86.1 790.7,53.5 C790.8,22.1 789.1,12.1 782.8,5.8 C777,1.33226763e-15 770.6,0.9 764,8.4 C758.5,14.6 757.3,23.1 757.3,54.5 C757.3,82.5 758.1,89.7 761.8,97 C765.1,103.4 771,107.4 775.8,106.4 C777.2,106.2 780.2,104 782.5,101.6 Z" id="Shape"></path>
                </g>
            </g>
            <text id="BETA" font-family="AUTHENTICSans-Regular, AUTHENTIC Sans" font-size="51" font-weight="normal" letter-spacing="1.88478255">
                <tspan x="1224" y="229">BETA</tspan>
            </text>
        </g>
    </g>
</svg>